<svg width="327" height="102" viewBox="0 0 327 102" fill="none" xmlns="http://www.w3.org/2000/svg">
<g clip-path="url(#clip0_164_2899)">
<g filter="url(#filter0_d_164_2899)">
<rect x="1" width="328" height="94" rx="10" fill="#0171BB" fill-opacity="0.83" shape-rendering="crispEdges"/>
</g>
<path d="M141.875 18.1875V22.0293H143.987C144.844 22.0293 145.487 21.8721 145.915 21.5576C146.343 21.2386 146.558 20.7441 146.558 20.0742C146.558 19.377 146.325 18.8893 145.86 18.6113C145.4 18.3288 144.68 18.1875 143.7 18.1875H141.875ZM141.875 17.2373H144.042C144.748 17.2373 145.281 17.1143 145.641 16.8682C146.002 16.6221 146.182 16.1846 146.182 15.5557C146.182 14.9222 145.965 14.487 145.532 14.25C145.104 14.0085 144.436 13.8877 143.529 13.8877H141.875V17.2373ZM140.692 12.8896H143.591C144.89 12.8896 145.851 13.0879 146.475 13.4844C147.104 13.8809 147.419 14.512 147.419 15.3779C147.419 15.5055 147.41 15.6331 147.391 15.7607C147.378 15.8838 147.337 16.0433 147.268 16.2393C147.205 16.4352 147.116 16.6152 147.002 16.7793C146.888 16.9388 146.719 17.1006 146.496 17.2646C146.277 17.4242 146.02 17.5518 145.724 17.6475C146.403 17.7751 146.918 18.0622 147.268 18.5088C147.619 18.9554 147.795 19.4932 147.795 20.1221C147.795 21.0381 147.494 21.7467 146.892 22.248C146.295 22.7493 145.405 23 144.22 23H140.692V12.8896ZM151.273 22.2344C151.816 22.2344 152.292 22.0863 152.702 21.79C153.117 21.4893 153.383 21.0859 153.502 20.5801V19.3154C153.479 19.3154 153.34 19.3268 153.085 19.3496C152.834 19.3724 152.67 19.3861 152.593 19.3906C151.604 19.4772 150.913 19.639 150.521 19.876C150.134 20.113 149.94 20.4935 149.94 21.0176C149.94 21.4186 150.059 21.7217 150.296 21.9268C150.533 22.1318 150.859 22.2344 151.273 22.2344ZM153.755 23C153.686 22.7083 153.62 22.3939 153.557 22.0566C153.142 22.4714 152.752 22.7585 152.388 22.918C152.023 23.0775 151.595 23.1572 151.102 23.1572C150.401 23.1572 149.836 22.9749 149.407 22.6104C148.983 22.2412 148.771 21.7126 148.771 21.0244C148.771 20.2588 149.061 19.6914 149.64 19.3223C150.223 18.9531 151.061 18.723 152.155 18.6318C152.306 18.6182 152.531 18.5999 152.832 18.5771C153.137 18.5498 153.365 18.5293 153.516 18.5156V17.8525C153.516 17.3239 153.393 16.932 153.146 16.6768C152.9 16.4215 152.513 16.2939 151.984 16.2939C151.246 16.2939 150.501 16.4762 149.749 16.8408C149.726 16.7861 149.667 16.6289 149.571 16.3691C149.476 16.1048 149.425 15.9681 149.421 15.959C149.754 15.7721 150.148 15.624 150.603 15.5146C151.064 15.4007 151.531 15.3438 152.005 15.3438C152.939 15.3438 153.611 15.5488 154.021 15.959C154.436 16.3646 154.643 17.0573 154.643 18.0371V23H153.755ZM158.464 23.1367C157.735 23.1367 157.217 22.9408 156.912 22.5488C156.611 22.1569 156.461 21.4756 156.461 20.5049V12.5889L157.596 12.5205V20.0537C157.596 20.3636 157.598 20.612 157.603 20.7988C157.612 20.9857 157.63 21.1702 157.657 21.3525C157.685 21.5303 157.721 21.6647 157.767 21.7559C157.812 21.847 157.878 21.9313 157.965 22.0088C158.051 22.0817 158.154 22.1318 158.272 22.1592C158.395 22.182 158.546 22.1934 158.724 22.1934C158.869 22.1934 159.157 22.166 159.585 22.1113L159.646 23.0205C159.177 23.098 158.783 23.1367 158.464 23.1367ZM162.346 22.2344C162.888 22.2344 163.364 22.0863 163.774 21.79C164.189 21.4893 164.456 21.0859 164.574 20.5801V19.3154C164.551 19.3154 164.412 19.3268 164.157 19.3496C163.907 19.3724 163.743 19.3861 163.665 19.3906C162.676 19.4772 161.986 19.639 161.594 19.876C161.206 20.113 161.013 20.4935 161.013 21.0176C161.013 21.4186 161.131 21.7217 161.368 21.9268C161.605 22.1318 161.931 22.2344 162.346 22.2344ZM164.827 23C164.759 22.7083 164.693 22.3939 164.629 22.0566C164.214 22.4714 163.825 22.7585 163.46 22.918C163.095 23.0775 162.667 23.1572 162.175 23.1572C161.473 23.1572 160.908 22.9749 160.479 22.6104C160.056 22.2412 159.844 21.7126 159.844 21.0244C159.844 20.2588 160.133 19.6914 160.712 19.3223C161.295 18.9531 162.134 18.723 163.228 18.6318C163.378 18.6182 163.604 18.5999 163.904 18.5771C164.21 18.5498 164.438 18.5293 164.588 18.5156V17.8525C164.588 17.3239 164.465 16.932 164.219 16.6768C163.973 16.4215 163.585 16.2939 163.057 16.2939C162.318 16.2939 161.573 16.4762 160.821 16.8408C160.799 16.7861 160.739 16.6289 160.644 16.3691C160.548 16.1048 160.498 15.9681 160.493 15.959C160.826 15.7721 161.22 15.624 161.676 15.5146C162.136 15.4007 162.603 15.3438 163.077 15.3438C164.011 15.3438 164.684 15.5488 165.094 15.959C165.508 16.3646 165.716 17.0573 165.716 18.0371V23H164.827ZM167.52 23V15.501H168.477L168.62 16.5742C168.916 16.2051 169.286 15.9089 169.728 15.6855C170.174 15.4577 170.655 15.3438 171.17 15.3438C172.036 15.3438 172.676 15.5876 173.091 16.0752C173.506 16.5583 173.713 17.3034 173.713 18.3105V23H172.571C172.571 19.9922 172.569 18.3812 172.564 18.167C172.546 17.529 172.416 17.0618 172.175 16.7656C171.938 16.4694 171.539 16.3213 170.979 16.3213C170.391 16.3213 169.901 16.4626 169.509 16.7451C169.117 17.0277 168.862 17.3945 168.743 17.8457C168.698 18.151 168.675 18.502 168.675 18.8984V23H167.52ZM178.62 23.1572C177.517 23.1572 176.654 22.7995 176.029 22.084C175.41 21.3685 175.1 20.432 175.1 19.2744C175.104 18.1077 175.421 17.1621 176.05 16.4375C176.683 15.7083 177.549 15.3438 178.648 15.3438C179.035 15.3438 179.409 15.3916 179.769 15.4873C180.133 15.583 180.42 15.7083 180.63 15.8633L180.316 16.752C179.782 16.4648 179.219 16.3213 178.627 16.3213C177.902 16.3213 177.328 16.5856 176.904 17.1143C176.485 17.6429 176.275 18.3652 176.275 19.2812C176.275 20.1745 176.483 20.8831 176.898 21.4072C177.317 21.9268 177.896 22.1865 178.634 22.1865C179.222 22.1865 179.823 22.027 180.439 21.708L180.582 22.6172C180.085 22.9772 179.431 23.1572 178.62 23.1572ZM186.221 16.8887C185.888 16.4876 185.43 16.2871 184.847 16.2871C184.263 16.2871 183.787 16.4945 183.418 16.9092C183.049 17.3193 182.832 17.8822 182.769 18.5977H186.727C186.727 17.8548 186.558 17.2852 186.221 16.8887ZM185.072 23.1572C183.983 23.1572 183.124 22.8109 182.495 22.1182C181.871 21.4255 181.559 20.4775 181.559 19.2744C181.559 18.1123 181.862 17.1712 182.468 16.4512C183.074 15.7266 183.872 15.3574 184.86 15.3438C185.79 15.3438 186.526 15.6628 187.068 16.3008C187.615 16.9342 187.889 17.7819 187.889 18.8438C187.889 18.8984 187.887 18.9987 187.882 19.1445C187.882 19.2904 187.882 19.3952 187.882 19.459H182.734C182.748 20.3112 182.967 20.9766 183.391 21.4551C183.819 21.929 184.393 22.166 185.113 22.166C185.906 22.166 186.702 21.9564 187.499 21.5371L187.677 22.46C186.916 22.9248 186.048 23.1572 185.072 23.1572Z" fill="white"/>
<path d="M128.349 54V39.6934H137.02L136.913 41.793H130.995V45.4844H136.62V47.584H130.995V51.8906H137.128L137.04 54H128.349ZM142.197 54V41.8125H138.027V39.6934H149.004V41.8125H144.853V54H142.197ZM150.519 54V39.6934H154.981C156.876 39.6934 158.289 39.9701 159.22 40.5234C160.151 41.0768 160.616 41.998 160.616 43.2871C160.616 43.4954 160.603 43.7005 160.577 43.9023C160.551 44.1042 160.492 44.3353 160.401 44.5957C160.31 44.8496 160.19 45.0807 160.04 45.2891C159.89 45.4974 159.682 45.7025 159.415 45.9043C159.148 46.0996 158.836 46.2526 158.477 46.3633C159.363 46.5781 160.04 46.9915 160.509 47.6035C160.977 48.209 161.212 48.9577 161.212 49.8496C161.212 51.1973 160.733 52.2259 159.776 52.9355C158.826 53.6452 157.507 54 155.821 54H150.519ZM153.165 52.0859H155.46C157.491 52.0859 158.507 51.2917 158.507 49.7031C158.507 48.9023 158.253 48.3262 157.745 47.9746C157.237 47.623 156.453 47.4473 155.392 47.4473H153.165V52.0859ZM153.165 45.6016H155.431C157.182 45.6016 158.058 44.9342 158.058 43.5996C158.058 42.8509 157.804 42.3366 157.296 42.0566C156.795 41.7767 155.994 41.6367 154.894 41.6367H153.165V45.6016ZM174.319 54V50.8262H167.864V49.0879L173.655 39.7617H176.907V48.8926H178.665L178.538 50.8262H176.907V54H174.319ZM170.403 48.9023H174.319V42.2617L170.403 48.9023ZM184.047 51.7246C184.418 52.0241 184.864 52.1738 185.385 52.1738C185.906 52.1738 186.348 52.0241 186.713 51.7246C187.084 51.4251 187.364 51.0117 187.553 50.4844C187.748 49.9505 187.888 49.3841 187.973 48.7852C188.057 48.1797 188.1 47.5091 188.1 46.7734C188.1 43.2448 187.195 41.4805 185.385 41.4805C183.588 41.4805 182.677 43.2318 182.65 46.7344C182.65 47.4766 182.693 48.1504 182.777 48.7559C182.862 49.3613 183.002 49.9342 183.197 50.4746C183.393 51.0085 183.676 51.4251 184.047 51.7246ZM187.465 53.8145C186.853 54.0749 186.16 54.2051 185.385 54.2051C184.61 54.2051 183.913 54.0749 183.295 53.8145C182.677 53.5475 182.165 53.1895 181.762 52.7402C181.358 52.2845 181.02 51.7409 180.746 51.1094C180.479 50.4779 180.287 49.8105 180.17 49.1074C180.059 48.4043 180.004 47.6523 180.004 46.8516C180.004 46.0378 180.063 45.276 180.18 44.5664C180.297 43.8503 180.492 43.1764 180.766 42.5449C181.039 41.9069 181.378 41.3633 181.781 40.9141C182.191 40.4648 182.703 40.11 183.315 39.8496C183.927 39.5827 184.617 39.4492 185.385 39.4492C186.153 39.4492 186.843 39.5827 187.455 39.8496C188.067 40.11 188.575 40.4681 188.979 40.9238C189.382 41.373 189.718 41.9167 189.984 42.5547C190.258 43.1862 190.453 43.8568 190.57 44.5664C190.688 45.276 190.746 46.0378 190.746 46.8516C190.746 47.6523 190.688 48.4043 190.57 49.1074C190.46 49.8105 190.271 50.4811 190.004 51.1191C189.737 51.7507 189.402 52.291 188.998 52.7402C188.594 53.1895 188.083 53.5475 187.465 53.8145ZM196.538 51.7246C196.909 52.0241 197.355 52.1738 197.876 52.1738C198.397 52.1738 198.84 52.0241 199.204 51.7246C199.575 51.4251 199.855 51.0117 200.044 50.4844C200.239 49.9505 200.379 49.3841 200.464 48.7852C200.549 48.1797 200.591 47.5091 200.591 46.7734C200.591 43.2448 199.686 41.4805 197.876 41.4805C196.079 41.4805 195.168 43.2318 195.142 46.7344C195.142 47.4766 195.184 48.1504 195.269 48.7559C195.353 49.3613 195.493 49.9342 195.689 50.4746C195.884 51.0085 196.167 51.4251 196.538 51.7246ZM199.956 53.8145C199.344 54.0749 198.651 54.2051 197.876 54.2051C197.101 54.2051 196.405 54.0749 195.786 53.8145C195.168 53.5475 194.657 53.1895 194.253 52.7402C193.849 52.2845 193.511 51.7409 193.237 51.1094C192.97 50.4779 192.778 49.8105 192.661 49.1074C192.551 48.4043 192.495 47.6523 192.495 46.8516C192.495 46.0378 192.554 45.276 192.671 44.5664C192.788 43.8503 192.984 43.1764 193.257 42.5449C193.53 41.9069 193.869 41.3633 194.273 40.9141C194.683 40.4648 195.194 40.11 195.806 39.8496C196.418 39.5827 197.108 39.4492 197.876 39.4492C198.644 39.4492 199.334 39.5827 199.946 39.8496C200.558 40.11 201.066 40.4681 201.47 40.9238C201.873 41.373 202.209 41.9167 202.476 42.5547C202.749 43.1862 202.944 43.8568 203.062 44.5664C203.179 45.276 203.237 46.0378 203.237 46.8516C203.237 47.6523 203.179 48.4043 203.062 49.1074C202.951 49.8105 202.762 50.4811 202.495 51.1191C202.228 51.7507 201.893 52.291 201.489 52.7402C201.086 53.1895 200.575 53.5475 199.956 53.8145Z" fill="white"/>
<rect width="40" height="6" transform="translate(287 8)" fill="#2C89C7"/>
<circle cx="299" cy="11" r="2" fill="white"/>
<circle cx="307" cy="11" r="2" fill="white"/>
<circle cx="315" cy="11" r="2" fill="white"/>
<g clip-path="url(#clip1_164_2899)">
<rect x="-5" y="-1" width="48" height="31" rx="4" fill="white" fill-opacity="0.39"/>
<rect x="-20" width="48" height="60" rx="4" fill="white" fill-opacity="0.39"/>
</g>
<path d="M257 47C257 47 252.523 54 247 54C241.477 54 237 47 237 47C237 47 241.477 40 247 40C252.523 40 257 47 257 47Z" stroke="white" stroke-width="1.5" stroke-linecap="round" stroke-linejoin="round"/>
<circle cx="247" cy="47" r="4" stroke="white" stroke-width="1.5" stroke-linecap="round" stroke-linejoin="round"/>
</g>
<defs>
<filter id="filter0_d_164_2899" x="-3" y="0" width="336" height="102" filterUnits="userSpaceOnUse" color-interpolation-filters="sRGB">
<feFlood flood-opacity="0" result="BackgroundImageFix"/>
<feColorMatrix in="SourceAlpha" type="matrix" values="0 0 0 0 0 0 0 0 0 0 0 0 0 0 0 0 0 0 127 0" result="hardAlpha"/>
<feOffset dy="4"/>
<feGaussianBlur stdDeviation="2"/>
<feComposite in2="hardAlpha" operator="out"/>
<feColorMatrix type="matrix" values="0 0 0 0 0.00392157 0 0 0 0 0.556863 0 0 0 0 0.835294 0 0 0 0.29 0"/>
<feBlend mode="normal" in2="BackgroundImageFix" result="effect1_dropShadow_164_2899"/>
<feBlend mode="normal" in="SourceGraphic" in2="effect1_dropShadow_164_2899" result="shape"/>
</filter>
<clipPath id="clip0_164_2899">
<rect width="327" height="102" fill="white"/>
</clipPath>
<clipPath id="clip1_164_2899">
<rect width="80" height="115" fill="white" transform="translate(-12 -13)"/>
</clipPath>
</defs>
</svg>
